<?xml version="1.0" encoding="UTF-8"?> <svg xmlns="http://www.w3.org/2000/svg" width="800" height="400" fill="none" viewBox="0 0 800 400"><defs><linearGradient id="c" x1="940.14" x2="943.881" y1="182.482" y2="372.008" gradientUnits="userSpaceOnUse"><stop offset=".15" stop-color="#3D7EFF" stop-opacity="0"></stop><stop offset="1" stop-color="#3D7EFF" stop-opacity=".6"></stop></linearGradient><linearGradient id="d" x1="831.042" x2="841.998" y1="99.632" y2="416.435" gradientUnits="userSpaceOnUse"><stop offset=".22" stop-color="#3D7EFF" stop-opacity="0"></stop><stop offset="1" stop-color="#3D7EFF" stop-opacity=".6"></stop></linearGradient><linearGradient id="e" x1="812.391" x2="808.364" y1="122.818" y2="355.124" gradientUnits="userSpaceOnUse"><stop offset=".12" stop-color="#0064ED" stop-opacity="0"></stop><stop offset="1" stop-color="#0064ED" stop-opacity=".6"></stop></linearGradient><radialGradient id="b" cx="0" cy="0" r="1" gradientTransform="rotate(90 192 592) scale(362.404)" gradientUnits="userSpaceOnUse"><stop offset=".063" stop-color="#0026FF" stop-opacity=".5"></stop><stop offset="1" stop-color="#0026FF" stop-opacity="0"></stop></radialGradient><clipPath id="a"><path fill="#fff" d="M0 0h800v400H0z"></path></clipPath></defs><g clip-path="url(#a)"><path fill="url(#b)" d="M1184 400c0 220.914-179.09 400-400 400-220.914 0-400-179.086-400-400S563.086 0 784 0c220.91 0 400 179.086 400 400Z"></path><path fill="url(#c)" fill-opacity=".25" d="M721.501 419C443.425 419 218 193.576 218-84.5 218-362.574 443.425-588 721.501-588 999.577-588 1225-362.575 1225-84.5 1225 193.577 999.577 419 721.501 419Z"></path><path fill="url(#d)" fill-opacity=".5" d="M842 413c-189.434 0-343-153.79-343-343.5S652.566-274 842-274c189.43 0 343 153.79 343 343.5S1031.43 413 842 413Z"></path><path fill="url(#e)" d="M923.5 413C784.601 413 672 300.176 672 161 672 21.825 784.601-91 923.5-91 1062.4-91 1175 21.825 1175 161c0 139.176-112.6 252-251.5 252Z"></path></g></svg> 